<?xml version="1.0" encoding="UTF-8"?>
<svg version="1.1" xmlns="http://www.w3.org/2000/svg" xmlns:xlink="http://www.w3.org/1999/xlink">
    <title>Group 9</title>
    <g id="Page-1" stroke="none" stroke-width="1" fill="none" fill-rule="evenodd">
        <g id="Group-9" fill="currentColor">
            <path d="M21.6233122,0 C27.6096057,0 33.0277366,2.43259376 36.9431191,6.36319572 L31.1983354,12.0858839 C28.7512102,9.62917277 25.364819,8.10874206 21.6233122,8.10874206 C14.1594212,8.10874206 8.10874206,14.1594212 8.10874206,21.6233122 C8.10874206,29.0872031 14.1594212,35.1378822 21.6233122,35.1378822 C25.3597867,35.1378822 28.7421002,33.6215387 31.1884563,31.1706481 L36.9281553,36.898436 C33.0139377,40.8202215 27.6019833,43.2466243 21.6233122,43.2466243 C9.68108661,43.2466243 0,33.5655377 0,21.6233122 C0,9.68108661 9.68108661,0 21.6233122,0 Z" id="Combined-Shape"></path>
            <path d="M71.912148,0.0844660631 C77.8984415,0.0844660631 83.3165724,2.51705983 87.231955,6.44766179 L81.4871713,12.1703499 C79.040046,9.71363884 75.6536548,8.19320812 71.912148,8.19320812 C64.448257,8.19320812 58.3975779,14.2438873 58.3975779,21.7077782 C58.3975779,29.1716692 64.448257,35.2223483 71.912148,35.2223483 C75.6486225,35.2223483 79.030936,33.7060048 81.4772921,31.2551142 L87.2169911,36.982902 C83.3027735,40.9046876 77.8908191,43.3310904 71.912148,43.3310904 C59.9699224,43.3310904 50.2888358,33.6500038 50.2888358,21.7077782 C50.2888358,9.76555267 59.9699224,0.0844660631 71.912148,0.0844660631 Z" id="Combined-Shape" transform="translate(68.760435, 21.707778) scale(-1, 1) translate(-68.760435, -21.707778) "></path>
            <polygon id="Path-8" points="37.4499942 10.664157 31.6747737 16.4014638 31.6747737 26.9296266 37.460699 32.6733189 37.460699 20.2160294 49.8772103 32.6733189 55.6209026 26.9296266 55.6209026 16.4014638 49.8772103 10.6577715 49.8349772 23.072828"></polygon>
        </g>
    </g>
</svg>