<?xml version="1.0" encoding="UTF-8"?>
<svg version="1.1" xmlns="http://www.w3.org/2000/svg" xmlns:xlink="http://www.w3.org/1999/xlink">
    <title>Group 9</title>
    <g id="Page-1" stroke="none" stroke-width="1" fill="none" fill-rule="evenodd">
        <g id="Group-9" fill="currentColor">
            <path d="M21.6233122,0 C27.6096057,0 33.0277366,2.43259376 36.9431191,6.36319572 L31.1983354,12.0858839 C28.7512102,9.62917277 25.364819,8.10874206 21.6233122,8.10874206 C14.1594212,8.10874206 8.10874206,14.1594212 8.10874206,21.6233122 C8.10874206,29.0872031 14.1594212,35.1378822 21.6233122,35.1378822 C25.3597867,35.1378822 28.7421002,33.6215387 31.1884563,31.1706481 L36.9281553,36.898436 C33.0139377,40.8202215 27.6019833,43.2466243 21.6233122,43.2466243 C9.68108661,43.2466243 0,33.5655377 0,21.6233122 C0,9.68108661 9.68108661,0 21.6233122,0 Z" id="Combined-Shape"></path>
            <path d="M71.912148,0.0844660631 C77.8984415,0.0844660631 83.3165724,2.51705983 87.231955,6.44766179 L81.4871713,12.1703499 C79.040046,9.71363884 75.6536548,8.19320812 71.912148,8.19320812 C64.448257,8.19320812 58.3975779,14.2438873 58.3975779,21.7077782 C58.3975779,29.1716692 64.448257,35.2223483 71.912148,35.2223483 C75.6486225,35.2223483 79.030936,33.7060048 81.4772921,31.2551142 L87.2169911,36.982902 C83.3027735,40.9046876 77.8908191,43.3310904 71.912148,43.3310904 C59.9699224,43.3310904 50.2888358,33.6500038 50.2888358,21.7077782 C50.2888358,9.76555267 59.9699224,0.0844660631 71.912148,0.0844660631 Z" id="Combined-Shape" transform="translate(68.760435, 21.707778) scale(-1, 1) translate(-68.760435, -21.707778) "></path>
            <polygon id="Path-8" points="37.4499942 10.664157 31.6747737 16.4014638 31.6747737 26.9296266 37.460699 32.6733189 37.460699 20.2160294 49.8772103 32.6733189 55.6209026 26.9296266 55.6209026 16.4014638 49.8772103 10.6577715 49.8349772 23.072828"></polygon>
            <g id="News" transform="translate(102.734729, 9.298946)" fill-rule="nonzero">
                <polygon id="Path" points="20.5526088 7.68214369e-14 20.5526088 24.5719456 16.0653492 24.5719456 5.37511311 9.10649743 5.1951428 9.10649743 5.1951428 24.5719456 -3.07285747e-13 24.5719456 -3.07285747e-13 7.68214369e-14 4.55924772 7.68214369e-14 15.1654977 15.4534502 15.3814621 15.4534502 15.3814621 7.68214369e-14"></polygon>
                <path d="M33.1385321,24.9318862 C31.2428449,24.9318862 29.6131138,24.5459499 28.2493389,23.7740773 C26.8855639,23.0022046 25.8357371,21.9063854 25.0998585,20.4866197 C24.3639799,19.066854 23.9960407,17.3851315 23.9960407,15.4414522 C23.9960407,13.5457649 24.3639799,11.8820395 25.0998585,10.4502757 C25.8357371,9.01851195 26.8735659,7.90269606 28.2133448,7.10282803 C29.5531237,6.30296001 31.1268641,5.903026 32.9345658,5.903026 C34.1503652,5.903026 35.2841781,6.096994 36.3360046,6.48492999 C37.387831,6.87286598 38.3076792,7.45476996 39.0955492,8.23064194 C39.8834192,9.00651393 40.4973179,9.98035324 40.9372454,11.1521599 C41.3771728,12.3239665 41.5971365,13.6937405 41.5971365,15.2614819 L41.5971365,16.6652502 L26.0357041,16.6652502 L26.0357041,13.4977729 L36.7859303,13.4977729 C36.7859303,12.7618943 36.6259567,12.1100018 36.3060095,11.5420956 C35.9860623,10.9741893 35.5441352,10.5282628 34.9802283,10.2043163 C34.4163213,9.88036974 33.7624292,9.71839646 33.0185519,9.71839646 C32.24268,9.71839646 31.5567931,9.8963671 30.9608915,10.2523084 C30.3649898,10.6082496 29.8990667,11.0841711 29.5631221,11.6800728 C29.2271775,12.2759745 29.0552059,12.9378653 29.0472072,13.6657452 L29.0472072,16.6772483 C29.0472072,17.5890978 29.2171792,18.3769678 29.5571231,19.0408583 C29.897067,19.7047487 30.3789875,20.2166643 31.0028845,20.5766049 C31.6267816,20.9365455 32.3666595,21.1165158 33.2225183,21.1165158 C33.7904246,21.1165158 34.3103388,21.036529 34.7822609,20.8765554 C35.2541831,20.7165818 35.6581164,20.4766214 35.994061,20.1566741 C36.3300055,19.8367269 36.5859633,19.4447916 36.7619343,18.9808682 L41.4891543,19.2928167 C41.2491939,20.4286293 40.7592747,21.418466 40.0193968,22.2623267 C39.2795189,23.1061875 38.3276759,23.7620793 37.163868,24.230002 C36.00006,24.6979248 34.6582814,24.9318862 33.1385321,24.9318862 Z" id="Path"></path>
                <polygon id="Path" points="48.42401 24.5719456 43.4088375 6.14298641 48.5799843 6.14298641 51.4355131 18.5249434 51.6034854 18.5249434 54.5789945 6.14298641 59.6541571 6.14298641 62.6776582 18.4529553 62.8336325 18.4529553 65.6411692 6.14298641 70.8003179 6.14298641 65.7971435 24.5719456 60.3860363 24.5719456 57.2185589 12.981858 56.9905966 12.981858 53.8231192 24.5719456"></polygon>
                <path d="M88.8453405,11.3981193 L84.1661126,11.6860718 C84.0861258,11.2861378 83.9141542,10.9241975 83.6501977,10.600251 C83.3862413,10.2763044 83.0402984,10.0163473 82.612369,9.82037964 C82.1844396,9.62441197 81.6745237,9.52642814 81.0826214,9.52642814 C80.290752,9.52642814 79.6228622,9.69240075 79.078952,10.024346 C78.5350417,10.3562912 78.2630866,10.7982183 78.2630866,11.3501272 C78.2630866,11.7900546 78.4390576,12.1619933 78.7909995,12.4659431 C79.1429414,12.769893 79.7468418,13.0138527 80.6027006,13.1978224 L83.9381502,13.8697115 C85.7298546,14.2376508 87.0656342,14.8295531 87.945489,15.6454185 C88.8253438,16.4612839 89.2652712,17.533107 89.2652712,18.860888 C89.2652712,20.0686887 88.9113296,21.1285138 88.2034464,22.0403633 C87.4955632,22.9522129 86.5277229,23.6620958 85.2999255,24.1700119 C84.0721281,24.6779281 82.6583614,24.9318862 81.0586253,24.9318862 C78.6190279,24.9318862 76.6773482,24.4219704 75.2335865,23.4021386 C73.7898247,22.3823069 72.9439642,20.9925362 72.6960052,19.2328266 L77.7231757,18.9688701 C77.8751506,19.7127474 78.2430899,20.278654 78.8269935,20.66659 C79.4108972,21.054526 80.1587738,21.248494 81.0706233,21.248494 C81.9664755,21.248494 82.6883564,21.0745227 83.236266,20.7265801 C83.7841756,20.3786375 84.0621297,19.9287118 84.0701284,19.3768028 C84.0621297,18.9128794 83.8661621,18.5309424 83.4822254,18.2309919 C83.0982888,17.9310414 82.5063864,17.7010793 81.7065184,17.5411057 L78.515045,16.9052106 C76.715342,16.54527 75.3775627,15.921373 74.5017072,15.0335195 C73.6258517,14.145666 73.187924,13.0138527 73.187924,11.6380797 C73.187924,10.454275 73.5098709,9.43444332 74.1537646,8.57858453 C74.7976584,7.72272575 75.7055086,7.06283463 76.8773152,6.59891118 C78.0491219,6.13498773 79.4228952,5.903026 80.9986352,5.903026 C83.3262512,5.903026 85.1599486,6.39494483 86.4997275,7.3787825 C87.8395065,8.36262017 88.6213775,9.7023991 88.8453405,11.3981193 Z" id="Path"></path>
            </g>
        </g>
    </g>
</svg>