<?xml version="1.0" encoding="UTF-8"?>
<svg width="2711px" height="1025px" viewBox="0 0 2711 1025" version="1.1" xmlns="http://www.w3.org/2000/svg" xmlns:xlink="http://www.w3.org/1999/xlink">
    <title>Combined Shape</title>
    <defs>
        <linearGradient x1="101.980059%" y1="42.8659046%" x2="-3.4616407e-13%" y2="57.1340954%" id="linearGradient-1">
            <stop stop-color="#E9AD00" offset="0%"></stop>
            <stop stop-color="#8E2C2C" offset="100%"></stop>
        </linearGradient>
    </defs>
    <g id="Page-1" stroke="none" stroke-width="1" fill="none" fill-rule="evenodd">
        <path d="M407.257066,0.8 C474.788694,0.8 534.625393,15.1562135 586.76716,43.8686406 C638.908928,72.5810677 680.599372,110.366622 711.838493,157.225303 C743.077613,204.083984 761.683266,254.617856 767.655451,308.826918 L767.655451,308.826918 L673.938089,308.826918 L673.668954,307.418734 C665.780185,266.620095 650.594886,229.189086 628.113055,195.125707 C605.372813,160.670794 575.511889,132.992014 538.530283,112.089367 C501.548677,91.1867205 457.561238,80.735397 406.567968,80.735397 C303.662629,80.735397 226.139076,116.223957 173.997308,187.201077 C121.855541,258.178197 95.7846568,366.94087 95.7846568,513.489098 C95.7846568,660.037326 121.855541,768.455451 173.997308,838.743472 C226.139076,909.031494 303.662629,944.175505 406.567968,944.175505 C457.561238,944.175505 501.548677,933.724181 538.530283,912.821534 C575.511889,891.918887 605.372813,864.010408 628.113055,829.096097 C650.853297,794.181786 666.128309,756.051682 673.938089,714.705787 L673.938089,714.705787 L767.655451,714.705787 L767.459023,716.303565 C760.862079,768.999528 742.896151,818.656258 713.561238,865.273755 C683.930013,912.362135 643.388066,950.721938 591.935397,980.353163 C540.482728,1009.98439 478.923284,1024.8 407.257066,1024.8 C275.869,1024.8 175.145805,980.812562 105.087483,892.837685 C35.0291611,804.862808 0,678.18358 0,512.8 C0,346.957021 35.0291611,220.162943 105.087483,132.417766 C175.145805,44.6725886 275.869,0.8 407.257066,0.8 Z M2350.51413,0.8 C2418.04576,0.8 2477.88246,15.1562135 2530.02423,43.8686406 C2582.16599,72.5810677 2623.85644,110.366622 2655.09556,157.225303 C2686.33468,204.083984 2704.94033,254.617856 2710.91252,308.826918 L2710.91252,308.826918 L2617.19515,308.826918 L2616.92602,307.418734 C2609.03725,266.620095 2593.85195,229.189086 2571.37012,195.125707 C2548.62988,160.670794 2518.76895,132.992014 2481.78735,112.089367 C2444.80574,91.1867205 2400.8183,80.735397 2349.82503,80.735397 C2246.91969,80.735397 2169.39614,116.223957 2117.25437,187.201077 C2065.11261,258.178197 2039.04172,366.94087 2039.04172,513.489098 C2039.04172,660.037326 2065.11261,768.455451 2117.25437,838.743472 C2169.39614,909.031494 2246.91969,944.175505 2349.82503,944.175505 C2400.8183,944.175505 2444.80574,933.724181 2481.78735,912.821534 C2518.76895,891.918887 2548.62988,864.010408 2571.37012,829.096097 C2594.11036,794.181786 2609.38537,756.051682 2617.19515,714.705787 L2617.19515,714.705787 L2710.91252,714.705787 L2710.71609,716.303565 C2704.11915,768.999528 2686.15322,818.656258 2656.8183,865.273755 C2627.18708,912.362135 2586.64513,950.721938 2535.19246,980.353163 C2483.73979,1009.98439 2422.18035,1024.8 2350.51413,1024.8 C2219.12607,1024.8 2118.40287,980.812562 2048.34455,892.837685 C1978.28623,804.862808 1943.25707,678.18358 1943.25707,512.8 C1943.25707,346.957021 1978.28623,220.162943 2048.34455,132.417766 C2118.40287,44.6725886 2219.12607,0.8 2350.51413,0.8 Z M1067.41319,14.581965 L1635.91925,853.214536 L1635.91925,14.581965 L1721.36743,14.581965 L1721.36743,1011.01803 L1645.56662,1011.01803 L1075.68237,168.939973 L1075.68237,1011.01803 L989.545087,1011.01803 L989.545087,14.581965 L1067.41319,14.581965 Z" id="Combined-Shape" fill="url(#linearGradient-1)"></path>
    </g>
</svg>